# This file uses centimeters as units for non-parametric coordinates.

mtllib braid.mtl
g default
v -0.324933 183.986312 0.375776
v -0.004216 183.999999 0.917119
v 0.320564 183.999999 0.654452
v 0.360599 184.008132 0.080764
v -0.626932 183.029677 0.795610
v -0.315958 183.022521 0.547099
v 0.347592 183.000533 1.034796
v 1.005422 183.015929 0.783912
v 1.348530 183.069625 0.096503
v 1.138229 183.065078 -0.369736
v 0.624866 183.037337 -0.491279
v -0.682773 183.038359 -0.348192
v -1.168385 183.064421 -0.212839
v -1.366634 183.074691 0.247530
v -1.134110 183.063552 0.698747
v 0.292884 183.104949 -0.325656
v -0.348895 183.048720 -0.129172
v 0.000179 184.999999 0.440439
v -0.390841 183.496672 0.542413
v 0.168598 183.496672 0.972165
v 0.657594 183.496672 0.709200
v 0.884353 183.496672 0.097019
v 0.567125 183.499999 -0.134055
v -0.761147 183.497695 0.091044
v -0.891883 183.496672 0.327842
v -0.768111 183.496672 0.562310
v 0.165827 182.546477 -0.396397
v 0.693175 182.546477 -0.762824
v 1.413620 182.546477 -0.587626
v 1.717471 182.546477 0.074673
v 1.314669 182.546477 0.825614
v 0.519676 182.546477 1.051168
v -0.223017 182.546477 0.556160
v -0.693588 182.546477 0.936780
v -1.407360 182.546477 0.789085
v -1.735209 182.546477 0.142155
v -1.449377 182.546477 -0.509427
v -0.758166 182.546477 -0.689036
v -0.204887 182.546477 -0.296023
v -0.002211 184.448043 0.703546
v 0.177053 184.448043 0.558565
v 0.204402 184.491118 0.255376
v -0.172585 184.482665 0.399688
v -0.671531 184.999999 0.972889
v -1.519243 184.999999 0.787401
v -1.902761 184.999999 0.008984
v -1.533290 184.999999 -0.776198
v -0.689048 184.999999 -0.976888
v 0.000040 184.999999 -0.444070
v 0.671531 184.999999 0.972889
v 1.519243 184.999999 0.787401
v 1.902762 184.999999 0.008984
v 1.533291 184.999999 -0.776198
v 0.689049 184.999999 -0.976888
v 0.000000 182.999999 -0.920771
v -0.386160 182.999999 -0.654468
v 0.674977 183.948058 -0.815333
v 0.377987 183.943923 -0.581244
v -0.337168 183.991713 -1.061910
v -1.037609 183.982222 -0.781282
v -1.336649 183.919570 -0.094882
v -1.105628 183.936995 0.356200
v -0.620267 183.955550 0.481002
v 0.731811 183.956069 0.313615
v 1.194382 183.914443 0.170970
v 1.370689 183.893660 -0.274195
v 1.148502 183.899382 -0.710341
v 0.165827 185.546477 -0.396397
v 0.693155 185.546477 -0.762825
v 1.413595 185.546477 -0.587626
v 1.717468 185.546477 0.074673
v 1.314666 185.546477 0.825614
v 0.519663 185.546477 1.051168
v -0.223033 185.546477 0.556160
v -0.693635 185.546477 0.936780
v -1.407562 185.546477 0.789085
v -1.735292 185.546477 0.142155
v -1.449394 185.546477 -0.509427
v -0.758205 185.546477 -0.689035
v -0.204887 185.546477 -0.296023
v 0.756480 184.456832 0.691704
v 1.463116 184.425460 0.521683
v 1.750087 184.412642 -0.132956
v 1.422727 184.427016 -0.801232
v 0.702121 184.467391 -0.967900
v 0.219301 184.471495 -0.577270
v -0.536125 184.499297 -1.069666
v -1.353942 184.480971 -0.829616
v -1.723709 184.431243 -0.063189
v -1.392178 184.438216 0.614323
v -0.657569 184.458724 0.788529
v 0.383845 183.472777 -0.533764
v -0.140202 183.487990 -1.009805
v -0.690289 183.499099 -0.713975
v -0.866009 183.481200 -0.108865
v 0.873091 183.468688 -0.344447
v 0.767200 183.465636 -0.542165
v -0.000093 182.546477 -0.721481
v -0.224789 182.546477 -0.566509
v 0.000173 185.546477 -0.721481
v -0.224575 185.546477 -0.566509
v -0.555826 183.786345 0.351897
v -0.506948 183.785216 0.452386
v -0.367990 183.758635 0.453265
v 0.082191 183.748336 0.944642
v 0.489079 183.748336 0.681826
v 0.647840 183.727629 0.089679
v -0.063370 183.220565 -0.961013
v -0.523622 183.225585 -0.681364
v -0.583990 183.236983 -0.136508
vt 0.367792 0.051935
vt 0.342979 0.096338
vt 0.325171 0.050530
vt 0.480251 0.046483
vt 0.459332 0.090172
vt 0.567931 0.048301
vt 0.546847 0.093402
vt 0.662030 0.059056
vt 0.653834 0.100983
vt 0.722713 0.053012
vt 0.715021 0.106708
vt 0.783745 0.056898
vt 0.216504 0.048501
vt 0.244658 0.095590
vt 0.205483 0.104021
vt 0.162237 0.052435
vt 0.271226 0.048607
vt 0.287908 0.091939
vt 0.498434 0.134774
vt 0.466739 0.176187
vt 0.435594 0.173083
vt 0.437833 0.130849
vt 0.568357 0.149346
vt 0.498379 0.188821
vt 0.392061 0.187054
vt 0.346291 0.144171
vt 0.340815 0.121733
vt 0.447734 0.110467
vt 0.527060 0.113166
vt 0.641397 0.128891
vt 0.292927 0.126813
vt 0.313601 0.122941
vt 0.802913 0.004600
vt 0.734640 0.004600
vt 0.666611 0.004600
vt 0.586169 0.004600
vt 0.500688 0.004600
vt 0.371323 0.004600
vt 0.331342 0.004600
vt 0.265651 0.004600
vt 0.198902 0.004600
vt 0.133651 0.004600
vt 0.071620 0.004600
vt 0.114998 0.051513
vt 0.037466 0.004600
vt 0.091934 0.055932
vt 0.425654 0.241561
vt 0.332947 0.259288
vt 0.331337 0.316881
vt 0.265641 0.316881
vt 0.255761 0.269283
vt 0.198901 0.316881
vt 0.183676 0.269597
vt 0.133652 0.316881
vt 0.105620 0.267405
vt 0.006290 0.316881
vt 0.983031 0.256673
vt 0.963359 0.316881
vt 0.906210 0.268248
vt 0.371319 0.316881
vt 0.523692 0.266617
vt 0.603078 0.273198
vt 0.586169 0.316881
vt 0.500687 0.316881
vt 0.674505 0.272847
vt 0.666611 0.316881
vt 0.744832 0.267388
vt 0.734641 0.316881
vt 0.802915 0.316881
vt 0.755636 0.219858
vt 0.689293 0.223995
vt 0.625125 0.224200
vt 0.556555 0.213208
vt 0.006290 0.204368
vt 0.094085 0.219237
vt 0.177616 0.220762
vt 0.249490 0.215249
vt 0.323521 0.205031
vt 0.870045 0.154281
vt 0.823559 0.167590
vt 0.837332 0.112478
vt 0.006290 0.151325
vt 0.006290 0.097829
vt 0.089278 0.167257
vt 0.079772 0.114655
vt 0.177193 0.165387
vt 0.169113 0.108455
vt 0.607757 0.160147
vt 0.652578 0.168716
vt 0.710059 0.174775
vt 0.749084 0.126918
vt 0.767198 0.172480
vt 0.789293 0.125124
vt 0.049406 0.060738
vt 0.006290 0.047563
vt 0.006290 0.004600
vt 0.015614 0.004600
vt 0.238783 0.160148
vt 0.301282 0.149549
vt 0.006290 0.070481
vt 0.065663 0.085189
vt 0.132788 0.077919
vt 0.943360 0.316881
vt 0.918595 0.316881
vt 0.855661 0.316881
vt 0.821677 0.262470
vt 0.825318 0.214326
vt 0.889855 0.209609
vt 0.983031 0.204879
vt 0.983031 0.098068
vt 0.855661 0.004600
vt 0.983031 0.004600
vt 0.983031 0.151701
vt 0.827208 0.070286
vt 0.983031 0.070650
vt 0.983031 0.047673
vt 0.006290 0.256381
vt 0.983031 0.316881
vn 0.622003 0.129994 0.772149
vn 0.079304 0.361619 0.928947
vn 0.160229 0.292049 0.942886
vn -0.171170 0.073172 0.982521
vn -0.213187 0.127062 0.968714
vn -0.627464 -0.034983 0.777859
vn -0.584696 -0.119219 0.802445
vn 0.591098 0.472321 0.653847
vn 0.606072 0.532767 0.590624
vn 0.766294 0.639179 0.065140
vn 0.683821 0.729407 0.018832
vn 0.495448 0.616849 -0.611579
vn 0.372660 0.717971 -0.587914
vn -0.110288 0.465163 -0.878328
vn -0.775915 0.629709 0.037709
vn -0.661693 0.749007 0.033925
vn -0.467200 0.759561 -0.452539
vn -0.488648 0.663399 -0.566679
vn -0.497320 0.485976 0.718679
vn -0.347395 0.589464 0.729279
vn 0.786686 0.464591 0.406548
vn 0.857110 0.343982 0.383457
vn -0.400831 0.394089 0.827060
vn -0.380655 0.318478 0.868144
vn 0.857138 0.503312 0.109503
vn 0.947053 0.305165 0.099831
vn -0.836978 0.236860 0.493321
vn -0.826884 0.165155 0.537574
vn -0.741773 0.071123 0.666869
vn -0.236089 0.248416 0.939442
vn 0.695561 0.562179 0.447382
vn 0.750037 0.653953 0.098944
vn -0.439279 0.365108 -0.820810
vn -0.648267 0.729027 0.219703
vn -0.291249 0.561497 0.774529
vn -0.251150 0.534723 0.806843
vn 0.051633 0.315518 0.947514
vn -0.054472 0.439940 -0.896374
vn -0.485994 0.295502 -0.822490
vn 0.548486 0.560774 -0.620239
vn 0.814627 0.576903 0.059715
vn 0.651697 0.454396 0.607301
vn -0.072251 0.075080 0.994557
vn -0.568632 -0.139862 0.810615
vn 0.125494 0.248374 0.960501
vn 0.621852 0.137778 0.770920
vn -0.604418 0.437391 0.665858
vn -0.814919 0.579207 -0.020651
vn -0.515990 0.620471 -0.590567
vn 0.062079 0.551768 -0.831684
vn 0.111467 0.570853 -0.813451
vn 0.512453 0.418338 -0.749924
vn 0.508066 0.427734 -0.747605
vn 0.159212 0.570462 0.805745
vn 0.190758 -0.126933 0.973396
vn 0.203009 0.071229 0.976583
vn -0.573347 0.115618 0.811114
vn -0.629270 -0.119880 0.767886
vn -0.959387 0.271357 0.077081
vn -0.999800 -0.018650 -0.007197
vn -0.608838 0.424227 -0.670334
vn -0.653005 0.144949 -0.743354
vn 0.164467 0.471223 -0.866544
vn 0.147560 0.338589 -0.929292
vn 0.540849 0.425094 -0.725794
vn 0.542905 0.390847 -0.743299
vn 0.622215 -0.100977 0.776307
vn 0.622216 0.082956 0.778438
vn -0.165905 -0.322147 0.932039
vn 0.635682 -0.119657 0.762621
vn 0.555561 0.107944 0.824439
vn -0.257667 -0.226178 0.939389
vn 0.998916 0.035142 0.030542
vn 0.943599 0.324484 0.065812
vn 0.642349 0.140211 -0.753478
vn 0.593484 0.377110 -0.711031
vn -0.177530 0.163191 -0.970490
vn -0.187356 0.345660 -0.919465
vn -0.599250 0.140498 -0.788137
vn -0.571728 0.274065 -0.773315
vn -0.558820 -0.386031 0.733962
vn -0.555625 -0.326411 0.764681
vn 0.611794 -0.225880 -0.758081
vn -0.168117 -0.119303 -0.978521
vn 0.923179 -0.383199 -0.029985
vn 0.569140 -0.494953 0.656583
vn -0.156457 -0.520038 0.839691
vn -0.554900 -0.461329 0.692287
vn -0.618540 -0.087483 -0.780868
vn 0.157174 0.114176 -0.980949
vn -0.627858 -0.259308 -0.733862
vn -0.898516 -0.437562 -0.034760
vn -0.562574 -0.452209 0.692112
vn 0.150697 -0.383353 0.911225
vn 0.581192 -0.273536 0.766416
vn 0.549012 0.265045 -0.792677
vn -0.615260 -0.162869 -0.771316
vn -0.140816 -0.321644 -0.936331
vn -0.051403 -0.448562 -0.892272
vn 0.152389 -0.064584 -0.986208
vn 0.583498 0.113921 -0.804085
vn 0.701550 -0.053696 -0.710594
vn 0.156089 -0.153962 -0.975670
vn -0.594655 -0.463809 -0.656709
vn -0.613040 -0.526728 -0.588847
vn -0.769861 -0.635152 -0.062426
vn -0.718018 -0.692708 -0.067871
vn -0.137059 -0.609122 0.781144
vn -0.544721 -0.467233 0.696399
vn 0.055234 -0.709208 0.702832
vn 0.462879 -0.695672 0.549348
vn 0.398391 -0.745936 0.533728
vn 0.747738 -0.663895 -0.011471
vn 0.570026 -0.813118 0.117943
vn 0.492548 -0.491949 -0.717902
vn 0.319387 -0.643592 -0.695544
vn -0.793337 -0.468916 -0.388246
vn 0.484160 -0.355470 -0.799519
vn 0.490687 -0.334952 -0.804384
vn -0.857499 -0.368486 -0.359045
vn -0.865889 -0.497100 0.055929
vn -0.946845 -0.309709 0.086984
vn 0.860612 -0.207427 -0.465102
vn 0.889965 -0.165781 -0.424827
vn -0.479012 -0.623254 0.618144
vn 0.053417 -0.512362 0.857106
vn 0.514421 -0.330204 0.791414
vn 0.233364 -0.330606 -0.914462
vn -0.688132 -0.562519 -0.458308
vn -0.744685 -0.663873 -0.068681
vn -0.118652 -0.606236 0.786384
vn 0.380374 -0.909416 -0.168161
vn -0.812727 -0.423665 -0.399978
vn 0.301852 -0.431597 -0.850064
vn 0.037506 -0.613822 -0.788553
vn -0.928038 -0.366310 0.067539
vn 0.868186 -0.224790 -0.442406
vn -0.035274 0.672237 -0.739495
vn -0.502463 -0.700411 0.506908
s 1
g braid_tool_geo4
usemtl initialShadingGroup
f 6/1/1 19/2/2 5/3/3
s 2
f 7/4/4 20/5/5 19/2/6 6/1/7
f 8/6/8 21/7/9 20/5/5 7/4/4
f 9/8/10 22/9/11 21/7/9 8/6/8
f 10/10/12 23/11/13 22/9/11 9/8/10
f 11/12/14 23/11/13 10/10/12
s 1
f 14/13/15 25/14/16 24/15/17 13/16/18
f 15/17/19 26/18/20 25/14/16 14/13/15
f 5/3/3 19/2/2 26/18/20 15/17/19
s 2
f 3/19/21 41/20/22 40/21/23 2/22/24
f 4/23/25 42/24/26 41/20/22 3/19/21
f 2/22/24 40/21/23 43/25/27 1/26/28
f 104/27/29 105/28/30 2/22/24 1/26/28
f 105/28/30 106/29/31 3/19/21 2/22/24
f 106/29/31 107/30/32 4/23/25 3/19/21
f 23/11/13 11/12/14 16/114/33
s 1
f 24/15/17 25/14/16 102/31/34
f 102/31/34 103/32/35 1/26/36
f 103/32/35 104/27/37 1/26/36
s 2
f 28/33/38 27/111/39 16/114/33 11/12/14
f 29/34/40 28/33/38 11/12/14 10/10/12
f 30/35/41 29/34/40 10/10/12 9/8/10
f 31/36/42 30/35/41 9/8/10 8/6/8
f 32/37/43 31/36/42 8/6/8 7/4/4
f 33/38/44 32/37/43 7/4/4 6/1/7
s 1
f 34/39/45 33/38/46 6/1/1 5/3/3
f 35/40/47 34/39/45 5/3/3 15/17/19
f 36/41/48 35/40/47 15/17/19 14/13/15
f 37/42/49 36/41/48 14/13/15 13/16/18
f 38/43/50 37/42/49 13/16/18 12/44/51
f 39/45/52 38/43/50 12/44/51 17/46/53
s 2
f 40/21/23 41/20/22 18/47/54
f 41/20/22 42/24/26 18/47/54
f 43/25/27 40/21/23 18/47/54
s 5
f 44/48/55 75/49/56 76/50/57 45/51/58
f 45/51/58 76/50/57 77/52/59 46/53/60
f 46/53/60 77/52/59 78/54/61 47/55/62
f 47/55/62 78/54/61 79/56/63 48/117/64
f 48/57/64 79/118/63 80/58/65 49/59/66
f 18/47/67 74/60/68 75/49/56 44/48/55
s 6
f 50/61/69 51/62/70 72/63/71 73/64/72
f 51/62/70 52/65/73 71/66/74 72/63/71
f 52/65/73 53/67/75 70/68/76 71/66/74
f 53/67/75 54/106/77 69/69/78 70/68/76
f 54/106/77 49/59/79 68/105/80 69/69/78
f 18/47/81 50/61/69 73/64/72 74/60/82
f 54/106/77 53/67/75 84/70/83 85/107/84
f 53/67/75 52/65/73 83/71/85 84/70/83
f 52/65/73 51/62/70 82/72/86 83/71/85
f 51/62/70 50/61/69 81/73/87 82/72/86
f 50/61/69 18/47/81 42/24/88 81/73/87
f 49/59/79 54/106/77 85/107/84 86/108/89
s 5
f 48/117/64 87/74/90 88/75/91 47/55/62
f 47/55/62 88/75/91 89/76/92 46/53/60
f 46/53/60 89/76/92 90/77/93 45/51/58
f 45/51/58 90/77/93 91/78/94 44/48/55
f 44/48/55 91/78/94 43/25/95 18/47/67
f 49/59/66 86/108/96 87/109/90 48/57/64
s 6
f 58/79/97 57/80/98 92/81/99
s 5
f 59/113/100 58/79/101 92/81/102 93/110/103
f 60/84/104 59/82/100 93/83/103 94/85/105
f 61/86/106 60/84/104 94/85/105 95/87/107
s 6
f 64/88/108 4/23/109 107/30/110
f 65/89/111 64/88/108 107/30/110 23/11/112
f 66/90/113 65/89/111 23/11/112 96/91/114
f 67/92/115 66/90/113 96/91/114 97/93/116
f 57/80/98 67/92/115 97/93/116 92/81/99
s 5
f 56/94/117 55/95/118 98/96/119 99/97/120
f 17/46/121 56/94/117 99/97/120 39/45/122
f 55/116/118 16/114/123 27/111/124 98/112/119
s 6
f 81/73/87 42/24/88 4/23/109 64/88/108
f 82/72/86 81/73/87 64/88/108 65/89/111
f 83/71/85 82/72/86 65/89/111 66/90/113
f 84/70/83 83/71/85 66/90/113 67/92/115
f 85/107/84 84/70/83 67/92/115 57/80/98
f 86/108/89 85/107/84 57/80/98 58/79/97
s 5
f 87/109/90 86/108/96 58/79/101 59/113/100
f 88/75/91 87/74/90 59/82/100 60/84/104
f 89/76/92 88/75/91 60/84/104 61/86/106
f 90/77/93 89/76/92 61/86/106 62/98/125
f 91/78/94 90/77/93 62/98/125 63/99/126
f 43/25/95 91/78/94 63/99/126 1/26/127
f 93/110/103 92/81/102 108/115/128
f 94/85/105 93/83/103 108/100/128 109/101/129
f 95/87/107 94/85/105 109/101/129 110/102/130
f 102/31/131 1/26/127 63/99/126
s 6
f 96/91/114 23/11/112 16/114/132
f 97/93/116 96/91/114 16/114/132
f 92/81/99 97/93/116 16/114/132
s 8
f 101/103/133 100/104/134 49/59/135
f 80/58/136 101/103/133 49/59/135
f 100/104/134 68/105/137 49/59/135
s 1
f 25/14/16 26/18/20 103/32/35 102/31/34
f 26/18/20 19/2/2 104/27/37 103/32/35
s 2
f 19/2/6 20/5/5 105/28/30 104/27/29
f 20/5/5 21/7/9 106/29/31 105/28/30
f 21/7/9 22/9/11 107/30/32 106/29/31
f 107/30/32 22/9/11 23/11/13
s 5
f 109/101/129 108/100/128 55/95/118 56/94/117
f 110/102/130 109/101/129 56/94/117 17/46/121
s 1
f 12/44/51 110/102/138 17/46/53
f 13/16/18 24/15/17 110/102/138 12/44/51
s 5
f 24/15/139 102/31/131 63/99/126 62/98/125
f 61/86/106 95/87/107 24/15/139 62/98/125
f 110/102/130 24/15/139 95/87/107
f 108/115/128 92/81/102 16/114/123 55/116/118
