# This file uses centimeters as units for non-parametric coordinates.

mtllib zipper.mtl
g default
v 5.883591 39.579780 7.577456
v 6.109638 39.579784 7.577458
v 5.883591 39.318852 7.577455
v 6.109638 39.318852 7.577456
v 5.883591 39.579784 7.442492
v 6.109638 39.579784 7.442489
v 5.883591 39.318852 7.442491
v 6.109638 39.318857 7.442491
v 5.883591 39.449316 7.586233
v 6.109638 39.449321 7.586236
v 5.906193 39.318852 7.712436
v 5.883591 39.324433 7.692538
v 5.883591 39.449316 7.700948
v 5.906193 39.449316 7.721222
v 6.109639 39.324433 7.692537
v 6.087036 39.318852 7.712435
v 6.109639 39.449316 7.700947
v 6.087036 39.449321 7.721222
v 5.906192 39.579784 7.712436
v 5.883591 39.574204 7.692535
v 5.883592 39.674148 7.652986
v 5.906194 39.690554 7.668600
v 6.109639 39.574204 7.692537
v 6.087035 39.579780 7.712434
v 6.087035 39.690558 7.668603
v 6.109638 39.674144 7.652986
v 6.087035 39.768081 7.534892
v 6.109638 39.745481 7.529964
v 5.883591 39.745481 7.529961
v 5.906193 39.768086 7.534893
v 6.109638 39.224488 7.652989
v 6.087035 39.208078 7.668600
v 6.109638 39.153150 7.529962
v 6.087035 39.130550 7.534892
v 5.906193 39.208083 7.668599
v 5.883591 39.224488 7.652988
v 5.906194 39.130546 7.534892
v 5.883591 39.153150 7.529960
v 5.883591 39.745481 7.442490
v 5.906194 39.768086 7.442487
v 6.087035 39.768091 7.442489
v 6.109638 39.745486 7.442488
v 6.109638 39.153146 7.442490
v 6.087035 39.130550 7.442491
v 5.906194 39.130541 7.442491
v 5.883591 39.153150 7.442491
v 5.754270 38.936874 7.444489
v 6.238958 38.936872 7.444488
v 5.825645 39.793999 7.444488
v 6.167584 39.793989 7.444488
v 5.825646 39.793994 7.250693
v 6.167584 39.793994 7.250692
v 5.754271 38.936872 7.250693
v 6.238959 38.936874 7.250693
v 5.647523 39.497257 7.444489
v 5.647522 39.497262 7.250692
v 6.345707 39.497262 7.250696
v 6.345706 39.497262 7.444488
v 5.855941 38.610164 7.716485
v 6.137289 38.610164 7.716486
v 5.861688 39.032695 7.640428
v 6.131542 39.032690 7.640429
v 5.861687 39.011136 7.520673
v 6.131542 39.011136 7.520671
v 5.855941 38.588603 7.596727
v 6.137289 38.588610 7.596728
v 6.280561 38.588602 7.596729
v 6.280560 38.610166 7.716487
v 6.268756 39.011136 7.520671
v 6.268755 39.032690 7.640430
v 5.712669 38.588607 7.596728
v 5.712668 38.610159 7.716488
v 5.724475 39.032685 7.640430
v 5.724474 39.011135 7.520674
v 6.139642 38.419876 7.627100
v 6.139642 38.441435 7.746856
v 6.285294 38.419876 7.627101
v 6.285295 38.441435 7.746857
v 6.123692 39.347604 7.583745
v 6.123691 39.326046 7.463987
v 6.252921 39.347595 7.583744
v 6.252920 39.326046 7.463985
v 5.853587 38.419879 7.627100
v 5.853587 38.441432 7.746859
v 5.707935 38.441435 7.746860
v 5.707935 38.419879 7.627100
v 5.869538 39.347604 7.583745
v 5.869538 39.326046 7.463987
v 5.740308 39.326045 7.463988
v 5.740309 39.347595 7.583745
v 6.141467 38.288486 7.650754
v 6.141467 38.310051 7.770507
v 6.259754 38.329075 7.643445
v 6.259753 38.350634 7.763202
v 6.116815 39.478989 7.560095
v 6.116816 39.457430 7.440338
v 6.217173 39.432647 7.568436
v 6.217173 39.411092 7.448681
v 5.851762 38.288491 7.650751
v 5.851760 38.310046 7.770507
v 5.733475 38.350634 7.763203
v 5.733476 38.329073 7.643445
v 5.876413 39.478985 7.560093
v 5.876412 39.457435 7.440338
v 5.776055 39.411092 7.448681
v 5.776056 39.432642 7.568435
vt 0.613729 0.064670
vt 0.611067 0.064650
vt 0.610966 0.062907
vt 0.613833 0.062935
vt 0.610964 0.066428
vt 0.613838 0.066371
vt 0.613301 0.067956
vt 0.611343 0.067919
vt 0.611391 0.061267
vt 0.613364 0.061490
vt 0.607102 0.063311
vt 0.615130 0.063436
vt 0.615310 0.062475
vt 0.607121 0.062019
vt 0.607136 0.064649
vt 0.615083 0.064659
vt 0.607130 0.065964
vt 0.615143 0.065888
vt 0.609625 0.063385
vt 0.609252 0.063388
vt 0.609169 0.062312
vt 0.609520 0.062378
vt 0.609659 0.064641
vt 0.609291 0.064637
vt 0.609622 0.065903
vt 0.609247 0.065893
vt 0.607121 0.067219
vt 0.615309 0.066861
vt 0.607340 0.068953
vt 0.615035 0.068217
vt 0.609500 0.066917
vt 0.609147 0.066984
vt 0.609681 0.068288
vt 0.609355 0.068444
vt 0.610032 0.069166
vt 0.609698 0.069369
vt 0.607625 0.070005
vt 0.614525 0.069047
vt 0.609381 0.060838
vt 0.609712 0.060988
vt 0.609720 0.059888
vt 0.610053 0.060088
vt 0.615062 0.061148
vt 0.607427 0.060304
vt 0.614550 0.060334
vt 0.614841 0.060118
vt 0.759958 0.006031
vt 0.765097 0.006388
vt 0.766700 0.012407
vt 0.758510 0.012397
vt 0.760757 0.015517
vt 0.764533 0.015724
vt 0.765377 0.017346
vt 0.673307 0.065355
vt 0.669980 0.063358
vt 0.768828 0.012774
vt 0.663696 0.069990
vt 0.758842 0.004534
vt 0.991026 0.056697
vt 0.994859 0.056623
vt 0.994962 0.061539
vt 0.991037 0.061651
vt 0.994261 0.062351
vt 0.571027 0.122710
vt 0.575841 0.119620
vt 0.992052 0.056002
vt 0.996620 0.056379
vt 0.998084 0.056157
vt 0.571027 0.118146
vt 0.996680 0.061675
vt 0.575841 0.124382
vt 0.989290 0.056396
vt 0.989317 0.061758
vt 0.987826 0.061910
vt 0.994740 0.052623
vt 0.995164 0.051306
vt 0.996838 0.052353
vt 0.995917 0.053222
vt 0.565943 0.119849
vt 0.994575 0.067288
vt 0.995694 0.066734
vt 0.566470 0.118724
vt 0.579260 0.122822
vt 0.991201 0.052589
vt 0.989997 0.053162
vt 0.578797 0.124148
vt 0.991551 0.067382
vt 0.991235 0.068624
vt 0.989623 0.067820
vt 0.990421 0.066818
vt 0.577763 0.119594
vt 0.994738 0.054167
vt 0.997606 0.053636
vt 0.996357 0.054179
vt 0.994826 0.065797
vt 0.993979 0.064874
vt 0.996245 0.065843
vt 0.567439 0.118323
vt 0.991150 0.054134
vt 0.991869 0.054766
vt 0.989548 0.054144
vt 0.577763 0.124435
vt 0.567439 0.122622
vt 0.991272 0.065863
vt 0.988636 0.066580
vt 0.989839 0.065934
vt 0.669980 0.071186
vt 0.766529 0.004535
vt 0.756305 0.012702
vt 0.663696 0.064555
vt 0.673307 0.069189
vt 0.759604 0.017528
vt 0.607711 0.059286
vt 0.615393 0.060974
vt 0.615672 0.062414
vt 0.615367 0.068389
vt 0.614818 0.069259
vt 0.615671 0.066918
vt 0.615496 0.065871
vt 0.615436 0.064655
vt 0.615484 0.063446
vt 0.579260 0.119574
vt 0.990848 0.051138
vt 0.994187 0.054644
vt 0.577763 0.122802
vt 0.994914 0.068636
vt 0.565942 0.122545
vt 0.567439 0.119772
vt 0.991994 0.065116
vt 0.566470 0.123670
vt 0.567439 0.124071
vt 0.989109 0.052250
vt 0.988311 0.053581
vt 0.996500 0.067753
vt 0.997461 0.066480
vt 0.578798 0.118247
vt 0.577763 0.117961
vt 0.571027 0.124249
vt 0.991691 0.062208
vt 0.987827 0.056171
vt 0.575841 0.122775
vt 0.998174 0.061813
vt 0.571027 0.119685
vt 0.575841 0.118014
vt 0.994042 0.056100
vn 0.000011 0.000005 -1.000000
vn 0.000011 0.000004 -1.000000
vn 0.000009 0.067136 -0.997744
vn 0.000009 0.067136 -0.997744
vn 0.000010 -1.000000 -0.000017
vn 0.000010 -1.000000 -0.000017
vn 0.000010 -1.000000 -0.000017
vn 0.000010 -1.000000 -0.000017
vn -0.000010 1.000000 0.000017
vn -0.000010 1.000000 0.000017
vn -0.000010 1.000000 0.000017
vn -0.000010 1.000000 0.000017
vn 0.000013 -0.067128 -0.997744
vn 0.000013 -0.067128 -0.997744
vn -0.673786 -0.146817 0.724194
vn -0.674302 -0.163056 0.720229
vn -0.707798 -0.504713 0.494253
vn -0.705765 -0.457589 0.540840
vn -0.667742 0.000003 0.744392
vn -0.667742 0.000004 0.744392
vn -0.673826 0.146808 0.724159
vn -0.674343 0.163049 0.720192
vn 0.674291 -0.163050 0.720240
vn 0.673775 -0.146816 0.724204
vn 0.705757 -0.457609 0.540834
vn 0.707787 -0.504712 0.494271
vn 0.667709 -0.000002 0.744422
vn 0.667709 0.000006 0.744422
vn 0.674303 0.163057 0.720227
vn 0.673784 0.146809 0.724198
vn -0.705797 0.457561 0.540822
vn -0.707826 0.504703 0.494225
vn -0.712281 0.660327 0.237957
vn -0.713594 0.666423 0.216020
vn 0.707830 0.504688 0.494233
vn 0.705797 0.457571 0.540814
vn 0.713582 0.666424 0.216055
vn 0.712275 0.660335 0.237954
vn 0.707105 0.707108 0.000058
vn 0.707105 0.707108 0.000058
vn -0.707143 0.707070 -0.000005
vn -0.707143 0.707070 -0.000005
vn 0.712216 -0.660388 0.237982
vn 0.713523 -0.666487 0.216055
vn 0.707021 -0.707193 0.000016
vn 0.707021 -0.707193 0.000016
vn -0.713598 -0.666411 0.216041
vn -0.712283 -0.660319 0.237974
vn -0.707176 -0.707037 0.000021
vn -0.707176 -0.707037 0.000021
vn 0.000001 -0.213123 0.977025
vn 0.000001 -0.213123 0.977025
vn 0.000006 0.000002 1.000000
vn 0.000006 0.000000 1.000000
vn -0.000003 0.865097 0.501605
vn -0.000003 0.865097 0.501605
vn -0.000002 0.945936 0.324353
vn -0.000002 0.945936 0.324354
vn 0.000015 -0.945931 0.324368
vn 0.000015 -0.945931 0.324369
vn -0.000001 -0.865081 0.501631
vn -0.000001 -0.865081 0.501631
vn 1.000000 -0.000002 -0.000003
vn 1.000000 -0.000002 -0.000001
vn 1.000000 0.000001 -0.000006
vn 1.000000 0.000001 -0.000006
vn -1.000000 -0.000000 -0.000002
vn -1.000000 -0.000000 -0.000004
vn -1.000000 0.000000 -0.000005
vn -1.000000 0.000000 -0.000005
vn 0.000002 0.213117 0.977027
vn 0.000002 0.213114 0.977027
vn -0.000002 0.367944 0.929848
vn -0.000002 0.367944 0.929848
vn 1.000000 0.000001 -0.000008
vn 1.000000 0.000001 -0.000004
vn 1.000000 0.000001 0.000002
vn 1.000000 -0.000000 -0.000007
vn -1.000000 0.000002 -0.000001
vn -1.000000 0.000002 -0.000003
vn -1.000000 0.000005 0.000002
vn -1.000000 0.000001 0.000000
vn 1.000000 -0.000005 0.000002
vn 1.000000 -0.000001 0.000000
vn -0.000003 -0.367968 0.929839
vn -0.000003 -0.367968 0.929839
vn -1.000000 0.000001 0.000002
vn -1.000000 -0.000002 -0.000002
vn -1.000000 0.000000 0.000000
vn -1.000000 0.000000 0.000000
vn -0.000000 1.000000 0.000051
vn -0.000000 1.000000 0.000051
vn 1.000000 0.000001 0.000005
vn 1.000000 0.000001 0.000005
vn 1.000000 0.000000 0.000000
vn 1.000000 0.000000 0.000000
vn 0.000039 -1.000000 0.000025
vn 0.000039 -1.000000 0.000025
vn -1.000000 0.000001 0.000003
vn -1.000000 0.000001 0.000003
vn 0.000002 -0.000001 1.000000
vn 0.000002 -0.000001 1.000000
vn 0.000002 -0.000000 1.000000
vn 0.000002 -0.000000 1.000000
vn 0.000014 1.000000 -0.000000
vn 0.000014 1.000000 -0.000000
vn 0.000014 1.000000 -0.000000
vn 0.000014 1.000000 -0.000000
vn 0.000003 -0.000000 -1.000000
vn 0.000003 -0.000000 -1.000000
vn 0.000003 0.000001 -1.000000
vn 0.000003 0.000001 -1.000000
vn 0.000000 -1.000000 -0.000000
vn 0.000000 -1.000000 -0.000000
vn 0.000000 -1.000000 -0.000000
vn 0.000000 -1.000000 -0.000000
vn 0.982336 -0.187124 0.000003
vn 0.982336 -0.187124 0.000003
vn 0.996551 0.082988 0.000005
vn 0.996551 0.082987 0.000005
vn -0.982336 -0.187126 -0.000001
vn -0.982336 -0.187126 -0.000001
vn -0.996551 0.082982 -0.000001
vn -0.996551 0.082989 -0.000001
vn -0.857390 0.514668 0.000000
vn -0.857390 0.514668 0.000000
vn 0.000003 -0.000005 -1.000000
vn 0.000003 -0.000005 -1.000000
vn 0.857385 0.514676 0.000008
vn 0.857385 0.514676 0.000008
vn 0.000001 0.000001 1.000000
vn 0.000001 0.000001 1.000000
vn 0.000002 0.177158 0.984182
vn -0.000004 0.177156 0.984183
vn -0.000001 0.177157 0.984183
vn -0.000001 0.177156 0.984183
vn 0.000008 0.984183 -0.177157
vn 0.000008 0.984183 -0.177157
vn 0.000008 0.984183 -0.177157
vn 0.000008 0.984183 -0.177157
vn -0.000004 -0.177154 -0.984183
vn -0.000001 -0.177156 -0.984183
vn 0.000000 -0.177155 -0.984183
vn -0.000003 -0.177154 -0.984183
vn 0.000011 -0.984181 0.177164
vn 0.000011 -0.984181 0.177164
vn 0.000011 -0.984181 0.177164
vn 0.000011 -0.984181 0.177164
vn 0.999621 0.027090 -0.004874
vn 0.999621 0.027081 -0.004872
vn 0.999281 0.037309 -0.006714
vn 0.999357 0.035280 -0.006348
vn -0.999621 0.027081 -0.004875
vn -0.999621 0.027090 -0.004877
vn -0.999357 0.035280 -0.006347
vn -0.999281 0.037310 -0.006712
vn 0.329199 -0.929318 0.167322
vn 0.329199 -0.929318 0.167322
vn 0.329199 -0.929318 0.167322
vn 0.329199 -0.929318 0.167322
vn -0.000004 -0.177158 -0.984182
vn -0.000003 -0.177157 -0.984183
vn 0.424747 0.890993 -0.160381
vn 0.424747 0.890993 -0.160381
vn 0.424747 0.890993 -0.160381
vn 0.424747 0.890993 -0.160381
vn -0.000007 0.177155 0.984183
vn -0.000001 0.177157 0.984183
vn -0.329189 -0.929327 0.167289
vn -0.329189 -0.929327 0.167289
vn -0.329189 -0.929327 0.167289
vn -0.329189 -0.929327 0.167289
vn 0.000000 0.177156 0.984183
vn 0.000007 0.177160 0.984182
vn -0.424770 0.890991 -0.160332
vn -0.424770 0.890991 -0.160332
vn -0.424770 0.890991 -0.160332
vn -0.424770 0.890991 -0.160332
vn -0.000009 -0.177154 -0.984183
vn -0.000011 -0.177154 -0.984183
vn -0.999906 -0.013509 0.002432
vn -0.999906 -0.013509 0.002432
vn -0.999906 -0.013509 0.002432
vn -0.999906 -0.013509 0.002432
vn -0.000002 -0.177159 -0.984182
vn -0.000002 -0.177160 -0.984182
vn 0.995761 -0.090528 0.016297
vn 0.997815 -0.065026 0.011706
vn -0.000007 0.177154 0.984183
vn -0.000007 0.177153 0.984183
vn -0.999699 -0.024138 0.004347
vn -0.999699 -0.024138 0.004347
vn -0.999699 -0.024138 0.004347
vn -0.999699 -0.024138 0.004347
vn 0.000010 0.177156 0.984183
vn 0.000011 0.177156 0.984183
vn 0.990493 0.135386 -0.024367
vn 0.993310 0.113650 -0.020456
vn -0.000002 -0.177152 -0.984184
vn -0.000003 -0.177153 -0.984183
vn 0.999906 -0.013512 0.002437
vn 0.999906 -0.013512 0.002437
vn 0.999906 -0.013512 0.002437
vn 0.999906 -0.013512 0.002437
vn 0.000011 0.177157 0.984183
vn 0.000011 0.177157 0.984183
vn -0.997815 -0.065026 0.011702
vn -0.995760 -0.090530 0.016293
vn -0.000002 -0.177162 -0.984182
vn -0.000002 -0.177162 -0.984182
vn 0.999699 -0.024139 0.004343
vn 0.999699 -0.024139 0.004343
vn 0.999699 -0.024139 0.004343
vn 0.999699 -0.024139 0.004343
vn -0.000012 -0.177155 -0.984183
vn -0.000012 -0.177154 -0.984183
vn -0.993310 0.113650 -0.020446
vn -0.990493 0.135389 -0.024358
vn -0.000008 0.177159 0.984182
vn -0.000008 0.177157 0.984183
vn -0.000005 -0.177168 -0.984181
vn -0.000005 -0.177168 -0.984181
vn 0.963752 -0.262579 0.047270
vn 0.963752 -0.262579 0.047270
vn -0.000004 0.177163 0.984182
vn -0.000004 0.177163 0.984182
vn 0.000017 0.177153 0.984183
vn 0.000017 0.177153 0.984183
vn 0.924057 0.376210 -0.067709
vn 0.924057 0.376210 -0.067709
vn 0.000009 -0.177132 -0.984187
vn 0.000009 -0.177132 -0.984187
vn 0.000010 0.177141 0.984185
vn 0.000010 0.177141 0.984185
vn -0.963755 -0.262569 0.047262
vn -0.963755 -0.262569 0.047262
vn 0.000004 -0.177158 -0.984182
vn 0.000004 -0.177158 -0.984182
vn -0.000015 -0.177137 -0.984186
vn -0.000015 -0.177137 -0.984186
vn -0.924055 0.376218 -0.067695
vn -0.924055 0.376218 -0.067695
vn -0.000011 0.177178 0.984179
vn -0.000011 0.177178 0.984179
vn 0.000000 -0.984180 0.177170
vn 0.000000 -0.984180 0.177170
vn 0.000000 -0.984180 0.177170
vn 0.000000 -0.984180 0.177170
vn -0.000005 0.177169 0.984180
vn -0.000005 0.177169 0.984180
vn -0.000005 0.177169 0.984180
vn -0.000005 0.177169 0.984180
vn 0.000001 0.984186 -0.177138
vn 0.000001 0.984186 -0.177138
vn 0.000001 0.984186 -0.177138
vn 0.000001 0.984186 -0.177138
vn -0.000003 -0.177147 -0.984185
vn -0.000003 -0.177147 -0.984185
vn -0.000003 -0.177147 -0.984184
vn -0.000003 -0.177147 -0.984185
vn -0.000002 0.984183 -0.177154
vn -0.000002 0.984183 -0.177154
vn -0.000002 0.984183 -0.177154
vn -0.000002 0.984183 -0.177154
vn 0.000001 -0.177171 -0.984180
vn 0.000001 -0.177171 -0.984180
vn 0.000001 -0.177171 -0.984180
vn 0.000001 -0.177171 -0.984180
vn -0.000001 -0.984178 0.177182
vn -0.000001 -0.984178 0.177182
vn -0.000001 -0.984178 0.177182
vn -0.000001 -0.984178 0.177182
vn 0.000002 0.177152 0.984183
vn 0.000002 0.177152 0.984183
vn 0.000002 0.177152 0.984183
vn 0.000002 0.177152 0.984183
s 1
g initialShadingGroup zipper_slider_geo Jacket_grp clothes_grp character_grp
usemtl standardSurface3SG
f 9/1/1 10/2/2 4/3/3 3/4/4
s off
f 2/5/5 1/6/6 5/7/7 6/8/8
f 3/4/9 4/3/10 8/9/11 7/10/12
s 1
f 1/6/13 2/5/14 10/2/2 9/1/1
s 2
f 11/121/15 12/12/16 36/13/17 35/115/18
f 12/12/16 11/121/15 14/120/19 13/16/20
f 13/16/20 14/120/19 19/119/21 20/18/22
s 3
f 15/19/23 16/20/24 32/21/25 31/22/26
f 16/20/24 15/19/23 17/23/27 18/24/28
f 18/24/28 17/23/27 23/25/29 24/26/30
s 2
f 20/18/22 19/119/21 22/118/31 21/28/32
f 21/28/32 22/118/31 30/116/33 29/30/34
s 3
f 24/26/30 23/25/29 26/31/35 25/32/36
f 25/32/36 26/31/35 28/33/37 27/34/38
f 27/34/38 28/33/37 42/35/39 41/36/40
s 2
f 29/30/34 30/116/33 40/117/41 39/38/42
s 3
f 31/22/26 32/21/25 34/39/43 33/40/44
f 33/40/44 34/39/43 44/41/45 43/42/46
s 2
f 35/115/18 36/13/17 38/43/47 37/114/48
f 37/114/48 38/43/47 46/45/49 45/46/50
s 4
f 11/11/51 16/20/52 18/24/53 14/15/54
s 5
f 22/27/55 25/32/56 27/34/57 30/29/58
s 6
f 37/44/59 34/39/60 32/21/61 35/14/62
s 7
f 15/19/63 4/3/64 10/2/65 17/23/66
s 8
f 3/4/67 12/12/68 13/16/69 9/1/70
s 4
f 19/17/71 24/26/72 25/32/73 22/27/74
s 7
f 23/25/75 2/5/76 28/33/77 26/31/78
s 8
f 1/6/79 20/18/80 21/28/81 29/30/82
s 7
f 4/3/64 15/19/63 31/22/83 33/40/84
s 4
f 16/20/52 11/11/51 35/14/85 32/21/86
s 8
f 12/12/68 3/4/67 38/43/87 36/13/88
f 1/6/79 29/30/82 39/38/89 5/7/90
s 5
f 30/29/58 27/34/57 41/36/91 40/37/92
s 7
f 28/33/77 2/5/76 6/8/93 42/35/94
f 4/3/64 33/40/84 43/42/95 8/9/96
s 6
f 34/39/60 37/44/59 45/113/97 44/41/98
s 8
f 38/43/87 3/4/67 7/10/99 46/45/100
f 9/1/70 13/16/69 20/18/80 1/6/79
s 7
f 17/23/66 10/2/65 2/5/76 23/25/75
s 4
f 14/15/54 18/24/53 24/26/72 19/17/71
s 9
f 47/47/101 48/48/102 58/49/103 55/50/104
s off
f 49/51/105 50/52/106 52/53/107 51/112/108
s 10
f 56/55/109 57/107/110 54/57/111 53/110/112
s off
f 53/58/113 54/108/114 48/48/115 47/47/116
s 11
f 48/48/117 54/108/118 57/56/119 58/49/120
s 12
f 53/58/121 47/47/122 55/50/123 56/109/124
f 56/109/124 55/50/123 49/51/125 51/112/126
s 10
f 51/54/127 52/111/128 57/107/110 56/55/109
s 11
f 58/49/120 57/56/119 52/53/129 50/52/130
s 9
f 55/50/104 58/49/103 50/52/131 49/51/132
s 13
f 59/59/133 60/60/134 62/61/135 61/62/136
s off
f 61/62/137 62/61/138 64/63/139 63/139/140
s 14
f 63/64/141 64/143/142 66/65/143 65/141/144
s off
f 65/66/145 66/145/146 60/60/147 59/59/148
s 15
f 68/67/149 67/68/150 69/142/151 70/70/152
s 16
f 71/140/153 72/72/154 73/73/155 74/74/156
s off
f 92/75/157 91/76/158 93/77/159 94/78/160
s 14
f 66/65/143 64/143/142 69/69/161 67/144/162
s off
f 96/126/163 95/80/164 97/81/165 98/134/166
s 13
f 62/61/135 60/60/134 68/67/167 70/70/168
s off
f 99/123/169 100/84/170 101/85/171 102/132/172
s 13
f 59/59/133 61/62/136 73/73/173 72/72/174
s off
f 103/87/175 104/88/176 105/89/177 106/90/178
s 14
f 63/64/141 65/141/144 71/71/179 74/138/180
s off
f 60/60/181 66/145/182 75/124/183 76/92/184
s 14
f 66/65/143 67/144/162 77/137/185 75/91/186
s 15
f 67/68/150 68/67/149 78/94/187 77/93/188
s 13
f 68/67/167 60/60/134 76/92/189 78/94/190
s off
f 64/63/191 62/61/192 79/95/193 80/96/194
s 13
f 62/61/135 70/70/168 81/97/195 79/95/196
s 15
f 70/70/152 69/142/151 82/135/197 81/97/198
s 14
f 69/69/161 64/143/142 80/128/199 82/98/200
s off
f 65/66/201 59/59/202 84/99/203 83/100/204
s 13
f 59/59/133 72/72/174 85/101/205 84/99/206
s 16
f 72/72/154 71/140/153 86/133/207 85/101/208
s 14
f 71/71/179 65/141/144 83/125/209 86/102/210
s off
f 61/62/211 63/139/212 88/129/213 87/104/214
s 14
f 63/64/141 74/138/180 89/131/215 88/103/216
s 16
f 74/74/156 73/73/155 90/106/217 89/105/218
s 13
f 73/73/173 61/62/136 87/104/219 90/106/220
s 14
f 75/91/186 77/137/185 93/136/221 91/122/222
s 15
f 77/93/188 78/94/187 94/78/223 93/77/224
s 13
f 78/94/190 76/92/189 92/75/225 94/78/226
f 79/95/196 81/97/195 97/81/227 95/80/228
s 15
f 81/97/198 82/135/197 98/134/229 97/81/230
s 14
f 82/98/200 80/128/199 96/79/231 98/82/232
s 13
f 84/99/206 85/101/205 101/85/233 100/84/234
s 16
f 85/101/208 86/133/207 102/132/235 101/85/236
s 14
f 86/102/210 83/125/209 99/83/237 102/86/238
f 88/103/216 89/131/215 105/130/239 104/127/240
s 16
f 89/105/218 90/106/217 106/90/241 105/89/242
s 13
f 90/106/220 87/104/219 103/87/243 106/90/244
s off
f 80/96/245 79/95/246 87/104/247 88/129/248
f 79/95/249 95/80/250 103/87/251 87/104/252
f 95/80/253 96/126/254 104/88/255 103/87/256
f 96/79/257 80/128/258 88/103/259 104/127/260
f 76/92/261 75/124/262 83/100/263 84/99/264
f 75/91/265 91/122/266 99/83/267 83/125/268
f 91/76/269 92/75/270 100/84/271 99/123/272
f 92/75/273 76/92/274 84/99/275 100/84/276
